<svg width="407" height="218" viewBox="0 0 407 218" fill="none" xmlns="http://www.w3.org/2000/svg">
<path d="M257.108 128.715L232.676 86.3978L257.108 44.0803H305.972L330.406 86.3978L305.972 128.715H257.108Z" fill="#00246B"/>
<path d="M101.41 128.715L76.9795 86.3978L101.41 44.0803H150.274L174.707 86.3978L150.274 128.715H101.41Z" fill="#00246B"/>
<path d="M101.41 217.284L76.9795 174.966L101.41 132.649H150.274L174.707 174.966L150.274 217.284H101.41Z" fill="#00246B"/>
<path d="M258.009 216.391L233.578 174.074L258.009 131.758H306.873L331.306 174.074L306.873 216.391H258.009Z" fill="#00246B"/>
<path d="M333.712 171.473L309.279 129.156L333.712 86.8389H382.577L407.01 129.156L382.577 171.473H333.712Z" fill="#00246B"/>
<path d="M24.4326 172.999L0 130.683L24.4326 88.3651H73.2969L97.7295 130.683L73.2969 172.999H24.4326Z" fill="#00246B"/>
<path d="M180.125 84.6349L155.693 42.3174L180.125 0H228.99L253.423 42.3174L228.99 84.6349H180.125Z" fill="#00246B"/>
<path d="M25.4893 84.6349L1.05664 42.3174L25.4893 0H74.3525L98.7872 42.3174L74.3525 84.6349H25.4893Z" fill="#00246B"/>
<path d="M179.243 172.999L154.812 130.683L179.243 88.3651H228.108L252.54 130.683L228.108 172.999H179.243Z" fill="#00246B"/>
<path d="M333.208 84.6349L308.775 42.3174L333.208 0H382.071L406.504 42.3174L382.071 84.6349H333.208Z" fill="#00246B"/>
<g opacity="0.2">
<path d="M357.13 115.603V101.734C357.13 101.734 355.117 98.4702 347.365 100.012C347.365 100.012 339.214 100.646 339.513 96.1147C339.513 96.1147 335.891 104.635 347.266 104.726C347.266 104.726 355.519 104.726 355.218 108.986C355.218 108.986 356.225 113.519 351.997 114.515C347.769 115.512 341.83 113.246 340.522 113.882C339.214 114.515 338.307 119.773 342.938 120.771C345.612 121.346 349.932 121.56 353.105 121.636L357.13 115.603Z" fill="white"/>
<path d="M358.493 115.603V101.734C358.493 101.734 360.506 98.4702 368.258 100.012C368.258 100.012 376.411 100.646 376.11 96.1147C376.11 96.1147 379.733 104.635 368.357 104.726C368.357 104.726 360.102 104.726 360.405 108.986C360.405 108.986 359.399 113.519 363.626 114.515C367.854 115.512 373.793 113.246 375.101 113.882C376.411 114.515 377.316 119.773 372.685 120.771C370.012 121.346 365.693 121.56 362.519 121.636L358.493 115.603Z" fill="white"/>
<path d="M349.58 106.992C347.635 106.992 346.058 108.411 346.058 110.164C346.058 111.916 347.635 113.335 349.58 113.335C351.526 113.335 353.105 111.916 353.105 110.164C353.105 108.411 351.526 106.992 349.58 106.992ZM349.58 112.161C348.356 112.161 347.362 111.267 347.362 110.164C347.362 109.059 348.356 108.166 349.58 108.166C350.807 108.166 351.799 109.059 351.799 110.164C351.799 111.267 350.807 112.161 349.58 112.161Z" fill="white"/>
<path d="M350.914 110.164C350.914 110.827 350.32 111.366 349.58 111.366C348.845 111.366 348.246 110.826 348.246 110.164C348.246 109.499 348.845 108.961 349.58 108.961C350.32 108.961 350.914 109.5 350.914 110.164Z" fill="white"/>
<path d="M365.182 106.992C363.236 106.992 361.659 108.411 361.659 110.164C361.659 111.916 363.236 113.335 365.182 113.335C367.127 113.335 368.707 111.916 368.707 110.164C368.707 108.411 367.127 106.992 365.182 106.992ZM365.182 112.161C363.957 112.161 362.963 111.267 362.963 110.164C362.963 109.059 363.957 108.166 365.182 108.166C366.409 108.166 367.401 109.059 367.401 110.164C367.401 111.267 366.409 112.161 365.182 112.161Z" fill="white"/>
<path d="M366.518 110.164C366.518 110.827 365.919 111.366 365.182 111.366C364.444 111.366 363.848 110.826 363.848 110.164C363.848 109.499 364.444 108.961 365.182 108.961C365.919 108.961 366.518 109.5 366.518 110.164Z" fill="white"/>
<path d="M357.733 116.962L354.71 121.254L357.733 125.029L360.757 121.254L357.733 116.962Z" fill="white"/>
<path d="M364.427 152.199C363.722 139.419 366.793 123.442 366.793 123.442H363.672C358.64 123.442 357.734 128.519 357.734 128.519C357.734 128.519 356.829 123.442 351.797 123.442H348.674C348.674 123.442 351.822 138.399 350.839 151.927C350.839 151.927 356.046 156.754 364.427 152.199Z" fill="white"/>
<path d="M346.057 123.442C346.057 123.442 349.58 136.224 349.58 145.196C349.58 145.196 336.669 145.26 336.647 141.526C336.589 132.552 342.919 120.638 346.057 123.442Z" fill="white"/>
<path d="M338.005 145.196C338.005 145.196 342.874 146.964 349.579 147.236C349.579 147.236 350.612 159.337 338.964 161.784C338.964 161.784 334.456 163.178 337.853 154.645C337.853 154.645 337.098 149.41 338.005 145.196Z" fill="white"/>
<path d="M369.222 123.442C369.222 123.442 365.699 136.224 365.699 145.196C365.699 145.196 378.612 145.26 378.634 141.526C378.692 132.552 372.362 120.638 369.222 123.442Z" fill="white"/>
<path d="M377.276 145.196C377.276 145.196 372.407 146.964 365.699 147.236C365.699 147.236 364.668 159.337 376.314 161.784C376.314 161.784 380.825 163.178 377.428 154.645C377.428 154.645 378.182 149.41 377.276 145.196Z" fill="white"/>
<path d="M351.969 158.325C351.969 158.475 351.837 158.597 351.668 158.597H350.914C350.749 158.597 350.612 158.475 350.612 158.325V154.911C350.612 154.76 350.749 154.639 350.914 154.639H351.668C351.837 154.639 351.969 154.76 351.969 154.911V158.325Z" fill="white"/>
<path d="M353.857 158.325C353.857 158.475 353.723 158.597 353.556 158.597H352.802C352.635 158.597 352.498 158.475 352.498 158.325V154.911C352.498 154.76 352.635 154.639 352.802 154.639H353.556C353.723 154.639 353.857 154.76 353.857 154.911V158.325Z" fill="white"/>
<path d="M355.745 158.325C355.745 158.475 355.61 158.597 355.444 158.597H354.689C354.522 158.597 354.386 158.475 354.386 158.325V154.911C354.386 154.76 354.522 154.639 354.689 154.639H355.444C355.61 154.639 355.745 154.76 355.745 154.911V158.325Z" fill="white"/>
<path d="M360.199 158.325C360.199 158.475 360.065 158.597 359.898 158.597H359.141C358.975 158.597 358.838 158.475 358.838 158.325V154.911C358.838 154.76 358.975 154.639 359.141 154.639H359.898C360.065 154.639 360.199 154.76 360.199 154.911V158.325Z" fill="white"/>
<path d="M362.088 158.325C362.088 158.475 361.953 158.597 361.786 158.597H361.03C360.863 158.597 360.729 158.475 360.729 158.325V154.911C360.729 154.76 360.863 154.639 361.03 154.639H361.786C361.953 154.639 362.088 154.76 362.088 154.911V158.325Z" fill="white"/>
<path d="M363.976 158.325C363.976 158.475 363.839 158.597 363.672 158.597H362.918C362.751 158.597 362.614 158.475 362.614 158.325V154.911C362.614 154.76 362.751 154.639 362.918 154.639H363.672C363.839 154.639 363.976 154.76 363.976 154.911V158.325Z" fill="white"/>
</g>
<g opacity="0.2">
<path d="M251.985 181.03C251.985 181.112 251.926 181.182 251.851 181.182H250.254C250.181 181.182 250.119 181.113 250.119 181.03V160.675C250.119 160.592 250.181 160.524 250.254 160.524H251.851C251.926 160.524 251.985 160.591 251.985 160.675V181.03Z" fill="white"/>
<path d="M269.036 172.647L252.784 179.983V162.078L269.036 169.415V172.647Z" fill="white"/>
<path d="M311.194 169.415H268.771V172.666H311.194V169.415Z" fill="white"/>
<path d="M316.499 167.375C316.499 167.347 316.52 167.322 316.544 167.322H317.089C317.116 167.322 317.136 167.346 317.136 167.375V174.706C317.136 174.736 317.116 174.759 317.089 174.759H316.544C316.52 174.759 316.499 174.737 316.499 174.706V167.375Z" fill="white"/>
<path d="M310.664 169.543L316.224 167.818V174.264L310.664 172.538V169.543Z" fill="white"/>
<path d="M302.015 188.705H276.028C271.806 188.705 268.371 185.27 268.371 181.048C268.371 176.826 271.806 173.393 276.028 173.393H302.015C306.236 173.393 309.669 176.826 309.669 181.048C309.669 185.27 306.236 188.705 302.015 188.705ZM276.028 175.792C273.129 175.792 270.771 178.149 270.771 181.048C270.771 183.947 273.129 186.306 276.028 186.306H302.015C304.914 186.306 307.271 183.947 307.271 181.048C307.271 178.149 304.914 175.792 302.015 175.792H276.028Z" fill="white"/>
<path d="M283.781 164.702H282.094V168.401H283.781V164.702Z" fill="white"/>
<path d="M285.024 163.724H280.76V165.884H285.024V163.724Z" fill="white"/>
<path d="M289.376 164.545H287.688V168.245H289.376V164.545Z" fill="white"/>
<path d="M290.619 163.569H286.356V165.729H290.619V163.569Z" fill="white"/>
<path d="M294.97 164.39H293.283V168.089H294.97V164.39Z" fill="white"/>
<path d="M296.213 163.412H291.951V165.574H296.213V163.412Z" fill="white"/>
<path d="M284.401 167.322H281.738V189.931H284.401V167.322Z" fill="white"/>
<path d="M289.821 167.322H287.155V189.931H289.821V167.322Z" fill="white"/>
<path d="M295.505 167.322H292.84V189.931H295.505V167.322Z" fill="white"/>
</g>
<g opacity="0.2">
<path d="M75.6209 113.571H22.1084V153.742H75.6209V113.571Z" stroke="white" stroke-width="1.3539" stroke-miterlimit="10"/>
<path d="M70.4949 120.16H27.3408V122.776H70.4949V120.16Z" fill="white"/>
<path d="M68.9253 125.497H28.8047V126.804H68.9253V125.497Z" fill="white"/>
<path d="M71.8538 129.366H25.876V130.674H71.8538V129.366Z" fill="white"/>
<path d="M71.8538 132.61H25.876V133.918H71.8538V132.61Z" fill="white"/>
<path d="M71.8538 135.854H25.876V137.161H71.8538V135.854Z" fill="white"/>
<path d="M66.1396 138.678C64.5603 138.678 63.2793 139.959 63.2793 141.54C63.2793 143.121 64.5613 144.401 66.1396 144.401C67.721 144.401 69.002 143.121 69.002 141.54C69.002 139.959 67.721 138.678 66.1396 138.678ZM66.1396 143.649C64.9765 143.649 64.0314 142.706 64.0314 141.541C64.0314 140.377 64.9765 139.433 66.1396 139.433C67.3048 139.433 68.2478 140.377 68.2478 141.541C68.2489 142.706 67.3048 143.649 66.1396 143.649Z" fill="white"/>
<path d="M67.9206 141.54C67.9206 142.522 67.1236 143.319 66.1399 143.319C65.1583 143.319 64.3613 142.522 64.3613 141.54C64.3613 140.557 65.1583 139.76 66.1399 139.76C67.1236 139.76 67.9206 140.557 67.9206 141.54Z" fill="white"/>
<path d="M67.8549 144.637C67.3479 144.919 66.7627 145.08 66.1389 145.08C65.4139 145.08 64.7411 144.861 64.1789 144.488L62.1113 150.106L63.9285 149.313L64.7964 151.094L65.9887 147.856L67.181 151.094L68.051 149.313L69.8682 150.106L67.8549 144.637Z" fill="white"/>
</g>
<g opacity="0.2">
<path d="M305.546 114.392H255.975V117.534H305.546V114.392Z" fill="white"/>
<path d="M303.148 110.135H258.372V112.973H303.148V110.135Z" fill="white"/>
<path d="M299.768 106.687H261.753V108.816H299.768V106.687Z" fill="white"/>
<path d="M268.547 88.4906H265.201V103.191H268.547V88.4906Z" fill="white"/>
<path d="M269.51 104H264.237V105.624H269.51V104Z" fill="white"/>
<path d="M269.51 86.0569H264.237V87.679H269.51V86.0569Z" fill="white"/>
<path d="M296.322 88.4906H292.977V103.191H296.322V88.4906Z" fill="white"/>
<path d="M297.286 104H292.013V105.624H297.286V104Z" fill="white"/>
<path d="M297.286 86.0569H292.013V87.679H297.286V86.0569Z" fill="white"/>
<path d="M300.579 81.4951H260.939V84.9427H300.579V81.4951Z" fill="white"/>
<path d="M297.648 76.8999C296.197 68.8875 289.19 62.8091 280.76 62.8091C272.329 62.8091 265.324 68.8875 263.873 76.8999V79.8395H297.647V76.8999H297.648Z" fill="white"/>
<path d="M283.157 61.7378C283.157 61.936 282.996 62.0988 282.796 62.0988H278.723C278.526 62.0988 278.362 61.9371 278.362 61.7378V59.8215C278.362 59.6223 278.525 59.4617 278.723 59.4617H282.796C282.995 59.4617 283.157 59.6213 283.157 59.8215V61.7378Z" fill="white"/>
<path d="M282.434 52.2138C282.434 51.2896 281.684 50.5416 280.76 50.5416C279.839 50.5416 279.088 51.2896 279.088 52.2138C279.088 52.9044 279.505 53.4958 280.103 53.7514V58.9567H281.421V53.7514C282.014 53.4948 282.434 52.9044 282.434 52.2138Z" fill="white"/>
</g>
<g opacity="0.2">
<path d="M125.841 157.172C110.978 157.172 98.9287 169.222 98.9287 184.087C98.9287 198.949 110.978 210.999 125.841 210.999C140.706 210.999 152.755 198.949 152.755 184.087C152.755 169.222 140.706 157.172 125.841 157.172ZM125.841 205.32C114.114 205.32 104.608 195.812 104.608 184.087C104.608 172.36 114.114 162.853 125.841 162.853C137.568 162.853 147.074 172.36 147.074 184.087C147.075 195.812 137.569 205.32 125.841 205.32Z" fill="white"/>
<path d="M125.843 202.357V199.393C134.284 199.393 141.152 192.527 141.152 184.086C141.152 180.626 140.028 177.362 137.898 174.648L140.229 172.821C142.772 176.062 144.115 179.956 144.115 184.086C144.115 194.159 135.919 202.357 125.843 202.357Z" fill="white"/>
<path d="M159.944 184.087H156.432C156.432 167.219 142.71 153.496 125.843 153.496C108.977 153.496 95.2534 167.219 95.2534 184.087H91.7432C91.7432 165.284 107.04 149.985 125.843 149.985C144.645 149.984 159.944 165.283 159.944 184.087Z" fill="white"/>
<path d="M125.842 165.507L122.777 182.444C122.581 182.869 122.47 183.342 122.47 183.842C122.47 185.702 123.979 187.211 125.841 187.211C127.703 187.211 129.213 185.702 129.213 183.842C129.213 183.342 129.101 182.869 128.905 182.444L125.842 165.507Z" fill="white"/>
<path d="M129.214 137.702H122.563V151.915H129.214V137.702Z" fill="white"/>
<path d="M132.904 135.789H118.898V142.64H132.904V135.789Z" fill="white"/>
<path d="M107.991 146.124L104.273 148.306L108.849 156.101L112.566 153.919L107.991 146.124Z" fill="white"/>
<path d="M109.902 142.799L100.456 148.342L102.532 151.879L111.978 146.336L109.902 142.799Z" fill="white"/>
<path d="M137.488 153.923L140.957 148.014L138.082 146.327L140.158 142.791L149.603 148.333L147.527 151.87L144.675 150.195L141.207 156.104L137.488 153.923Z" fill="white"/>
</g>
<g opacity="0.2">
<path d="M224.402 12.9966H187.023V36.5718H224.402V12.9966Z" fill="white"/>
<path d="M226.092 9.81079H185.332V11.9346H226.092V9.81079Z" fill="white"/>
<path d="M210.136 37.6335H201.289V40.0766H210.136V37.6335Z" fill="white"/>
<path d="M206.645 40.9248H204.778V66.7751H206.645V40.9248Z" fill="white"/>
<path d="M208.412 5.98352H203.013V8.5987H208.412V5.98352Z" fill="white"/>
<path d="M196.726 79.8395H198.752L203.987 66.8752V61.7126L196.726 79.8395Z" fill="white"/>
<path d="M214.659 79.8395H212.544L207.31 66.8752V61.7126L214.659 79.8395Z" fill="white"/>
</g>
<g opacity="0.2">
<path d="M182.809 113.985L184.253 115.635H204.061V146.451H180.264V125.11L178.611 122.454V148.101H205.711V113.985H182.809Z" fill="white"/>
<path d="M230.335 114.81H204.887V147.276H230.335V114.81Z" stroke="white" stroke-width="1.5825" stroke-miterlimit="10"/>
<path d="M232.539 117.837V149.202H177.237V119.102L176.335 117.837H174.073V149.202V151.265H177.237H232.539H235.7V149.202V117.837H232.539Z" fill="white"/>
<path d="M198.972 121.689H187.14L186.136 120.314H198.972V121.689Z" fill="white"/>
<path d="M201.996 124.99H189.85L188.792 123.614H201.996V124.99Z" fill="white"/>
<path d="M201.997 127.88L190.417 127.819L190.082 126.444L201.997 126.503V127.88Z" fill="white"/>
<path d="M201.997 130.767H191.035L190.804 129.392H201.997V130.767Z" fill="white"/>
<path d="M201.997 132.281H182.051V133.656H201.997V132.281Z" fill="white"/>
<path d="M201.997 135.17H182.051V136.545H201.997V135.17Z" fill="white"/>
<path d="M201.997 138.06H182.051V139.435H201.997V138.06Z" fill="white"/>
<path d="M201.997 140.948H182.051V142.323H201.997V140.948Z" fill="white"/>
<path d="M224.558 120.314H210.665V121.689H224.558V120.314Z" fill="white"/>
<path d="M227.585 123.614H207.639V124.99H227.585V123.614Z" fill="white"/>
<path d="M227.585 126.503H207.639V127.879H227.585V126.503Z" fill="white"/>
<path d="M227.585 129.392H207.639V130.767H227.585V129.392Z" fill="white"/>
<path d="M227.585 132.281H207.639V133.656H227.585V132.281Z" fill="white"/>
<path d="M227.585 135.17H207.639V136.545H227.585V135.17Z" fill="white"/>
<path d="M227.585 138.06H207.639V139.435H227.585V138.06Z" fill="white"/>
<path d="M227.585 140.948H207.639V142.323H227.585V140.948Z" fill="white"/>
<path d="M178.565 111.834L175.01 114.33L184.49 127.831L188.045 125.335L178.565 111.834Z" fill="white"/>
<path d="M177.022 109.638L173.467 112.134L174.701 113.891L178.255 111.395L177.022 109.638Z" fill="white"/>
<path d="M175.123 107.06C174.456 106.111 173.146 105.882 172.199 106.548C171.249 107.215 171.021 108.524 171.688 109.472L173.128 111.523L176.563 109.11L175.123 107.06Z" fill="white"/>
<path d="M184.791 128.258L189.85 131.683L188.288 125.804L184.791 128.258ZM187.937 126.766L188.444 128.675L187.466 129.361L185.824 128.249L187.937 126.766Z" fill="white"/>
</g>
<g opacity="0.2">
<path d="M385.688 20.3185H329.922C329.615 20.3185 329.364 20.5678 329.364 20.8776V56.3541C329.364 56.6628 329.615 56.9122 329.922 56.9122H385.688C385.998 56.9122 386.246 56.6628 386.246 56.3541V20.8786C386.246 20.5688 385.998 20.3185 385.688 20.3185ZM382.328 53.1839C382.328 53.4374 382.112 53.6419 381.845 53.6419H333.764C333.499 53.6419 333.283 53.4374 333.283 53.1839V24.0488C333.283 23.7943 333.499 23.5898 333.764 23.5898H381.845C382.112 23.5898 382.328 23.7943 382.328 24.0488V53.1839Z" fill="white"/>
<path d="M379.767 51.6631C379.767 51.8895 379.573 52.0731 379.336 52.0731H336.278C336.04 52.0731 335.846 51.8884 335.846 51.6631V25.5698C335.846 25.3423 336.04 25.1577 336.278 25.1577H379.336C379.573 25.1577 379.767 25.3423 379.767 25.5698V51.6631Z" fill="white"/>
<path d="M367.595 58.7345H348.014V64.5313H367.595V58.7345Z" fill="white"/>
<path d="M374.612 64.5303H340.999V67.8423H374.612V64.5303Z" fill="white"/>
</g>
<g opacity="0.2">
<path d="M136.671 87.1248C136.671 102.804 131.941 115.516 126.105 115.516C120.268 115.516 115.537 102.804 115.537 87.1248C115.537 71.4452 120.268 58.7334 126.105 58.7334C131.941 58.7344 136.671 71.4452 136.671 87.1248Z" stroke="white" stroke-width="1.8331" stroke-miterlimit="10"/>
<path d="M132.056 78.3948C145.012 87.2282 152.85 98.296 149.563 103.118C146.275 107.939 133.108 104.688 120.152 95.8561C107.196 87.0237 99.3596 75.9549 102.647 71.1324C105.932 66.311 119.102 69.5614 132.056 78.3948Z" stroke="white" stroke-width="1.8331" stroke-miterlimit="10"/>
<path d="M120.152 78.3948C107.196 87.2282 99.3596 98.296 102.647 103.118C105.932 107.939 119.102 104.688 132.056 95.8561C145.012 87.0237 152.85 75.9549 149.561 71.1324C146.275 66.311 133.108 69.5614 120.152 78.3948Z" stroke="white" stroke-width="1.8331" stroke-miterlimit="10"/>
<path d="M153.305 70.5679C153.305 72.8857 151.424 74.7644 149.109 74.7644C146.79 74.7644 144.912 72.8847 144.912 70.5679C144.912 68.25 146.791 66.3723 149.109 66.3723C151.424 66.3723 153.305 68.251 153.305 70.5679Z" fill="white"/>
<path d="M129.719 114.335C129.719 116.653 127.841 118.532 125.525 118.532C123.206 118.532 121.328 116.653 121.328 114.335C121.328 112.017 123.207 110.14 125.525 110.14C127.841 110.14 129.719 112.018 129.719 114.335Z" fill="white"/>
<path d="M106.774 71.4182C106.774 73.7361 104.893 75.6137 102.577 75.6137C100.261 75.6137 98.3809 73.735 98.3809 71.4182C98.3809 69.1003 100.262 67.2227 102.577 67.2227C104.893 67.2216 106.774 69.1003 106.774 71.4182Z" fill="white"/>
</g>
<g opacity="0.2">
<path d="M43.3237 38.5833H39.3242V39.8434H42.9085C42.9951 39.4313 43.1275 38.9849 43.3237 38.5833Z" fill="white"/>
<path d="M56.4346 38.5833C56.4596 38.7189 56.4815 38.8545 56.4982 38.9922C56.6067 39.278 56.7329 39.5607 56.8591 39.8434H60.5227V38.5833H56.4346Z" fill="white"/>
<path d="M54.1119 38.5833H45.557C45.459 39.0036 45.3286 39.4491 45.1377 39.8434H54.5855C54.403 39.4324 54.2423 39.013 54.1119 38.5833Z" fill="white"/>
<path d="M63.4609 62.9677L64.6751 66.8983L63.874 67.1466L62.6702 63.2598C62.2425 63.3777 61.8169 63.4257 61.3965 63.408L63.0405 68.7239L66.2513 67.7308L64.5071 62.0884C64.2526 62.4451 63.9126 62.7456 63.4609 62.9677Z" fill="white"/>
<path d="M60.6306 56.6641L51.1484 26.0091L51.9516 25.7608L61.4057 56.3188C61.8073 56.1885 62.2204 56.1352 62.6387 56.2072C62.6575 56.2104 62.6752 56.2166 62.694 56.2197L52.7841 24.1857L49.5732 25.1787L59.5437 57.4141C59.8785 57.145 60.2457 56.8801 60.6306 56.6641Z" fill="white"/>
<path d="M60.8593 55.986C58.7261 56.6453 57.5306 58.911 58.192 61.0432C58.8502 63.1775 61.116 64.3719 63.2492 63.7116C65.3824 63.0513 66.5758 60.7877 65.9186 58.6544C65.2562 56.5201 62.9926 55.3257 60.8593 55.986ZM62.7485 62.0926C61.5092 62.4765 60.1938 61.7818 59.811 60.5425C59.4261 59.3033 60.1208 57.9868 61.3611 57.604C62.6004 57.2211 63.9158 57.9148 64.2986 59.1541C64.6835 60.3933 63.9888 61.7098 62.7485 62.0926Z" fill="white"/>
<path d="M63.5196 59.3949C63.77 60.2034 63.3183 61.0629 62.5088 61.3122C61.7004 61.5626 60.8398 61.1099 60.5915 60.3004C60.3412 59.4919 60.7928 58.6334 61.6023 58.3831C62.4118 58.1327 63.2693 58.5865 63.5196 59.3949Z" fill="white"/>
<path d="M63.6533 69.0149L65.9868 68.2931L66.9747 75.6139L63.6533 69.0149Z" fill="white"/>
<path d="M36.3861 62.9677L35.1719 66.8983L35.9751 67.1466L37.1768 63.2598C37.6066 63.3777 38.0301 63.4257 38.4505 63.408L36.8065 68.7239L33.5957 67.7308L35.3419 62.0884C35.5933 62.4451 35.9355 62.7456 36.3861 62.9677Z" fill="white"/>
<path d="M39.2155 56.6641L48.6998 26.0091L47.8976 25.7608L38.4436 56.3188C38.042 56.1885 37.6289 56.1352 37.2106 56.2072C37.1907 56.2104 37.1741 56.2166 37.1553 56.2197L47.0631 24.1857L50.2739 25.1787L40.3025 57.4141C39.9676 57.145 39.6035 56.8801 39.2155 56.6641Z" fill="white"/>
<path d="M33.9279 58.6535C33.2676 60.7867 34.462 63.0503 36.5953 63.7106C38.7306 64.372 40.9942 63.1766 41.6546 61.0423C42.3149 58.9101 41.1205 56.6444 38.9851 55.9851C36.8519 55.3258 34.5883 56.5202 33.9279 58.6535ZM35.5459 59.1542C35.9287 57.9149 37.2452 57.2202 38.4855 57.604C39.7247 57.9869 40.4195 59.3033 40.0356 60.5426C39.6527 61.7819 38.3363 62.4766 37.096 62.0927C35.8557 61.7099 35.163 60.3934 35.5459 59.1542Z" fill="white"/>
<path d="M36.3267 59.3951C36.0763 60.2035 36.5301 61.063 37.3396 61.3124C38.148 61.5627 39.0065 61.11 39.2569 60.3005C39.5052 59.4921 39.0535 58.6336 38.244 58.3832C37.4345 58.1328 36.577 58.5866 36.3267 59.3951Z" fill="white"/>
<path d="M36.1914 69.0149L33.8589 68.2931L32.8721 75.6139L36.1914 69.0149Z" fill="white"/>
<path d="M46.2988 26.2169C46.2988 28.2176 47.923 29.8408 49.9238 29.8408C51.9245 29.8408 53.5466 28.2176 53.5466 26.2169V17.6578H46.2999L46.2988 26.2169Z" fill="white"/>
<path d="M50.818 9.9906H49.0332V18.7072H50.818V9.9906Z" fill="white"/>
<path d="M51.6567 7.67908H48.1914V14.349H51.6567V7.67908Z" fill="white"/>
<path d="M50.8161 35.1179H49.0312V42.9937H50.8161V35.1179Z" fill="white"/>
</g>
</svg>
